<svg width="80" height="80" viewBox="0 0 80 80" fill="none" xmlns="http://www.w3.org/2000/svg">
<g filter="url(#filter0_d_547_9069)">
<g clip-path="url(#clip0_547_9069)">
<path d="M20 10C20 6.68629 22.6863 4 26 4H54C57.3137 4 60 6.68629 60 10V38C60 41.3137 57.3137 44 54 44H26C22.6863 44 20 41.3137 20 38V10Z" fill="#E0E0E0"/>
<g clip-path="url(#clip1_547_9069)">
<ellipse cx="40" cy="43" rx="16" ry="12" fill="white" fill-opacity="0.72"/>
<circle opacity="0.9" cx="40" cy="20" r="8" fill="white"/>
</g>
</g>
<path d="M26 4.25H54C57.1756 4.25 59.75 6.82436 59.75 10V38C59.75 41.1756 57.1756 43.75 54 43.75H26C22.8244 43.75 20.25 41.1756 20.25 38V10C20.25 6.82436 22.8244 4.25 26 4.25Z" stroke="#242424" stroke-opacity="0.1" stroke-width="0.5"/>
</g>
<defs>
<filter id="filter0_d_547_9069" x="0" y="0" width="80" height="80" filterUnits="userSpaceOnUse" color-interpolation-filters="sRGB">
<feFlood flood-opacity="0" result="BackgroundImageFix"/>
<feColorMatrix in="SourceAlpha" type="matrix" values="0 0 0 0 0 0 0 0 0 0 0 0 0 0 0 0 0 0 127 0" result="hardAlpha"/>
<feMorphology radius="12" operator="erode" in="SourceAlpha" result="effect1_dropShadow_547_9069"/>
<feOffset dy="16"/>
<feGaussianBlur stdDeviation="16"/>
<feColorMatrix type="matrix" values="0 0 0 0 0.0533333 0 0 0 0 0.0693333 0 0 0 0 0.106667 0 0 0 0.1 0"/>
<feBlend mode="normal" in2="BackgroundImageFix" result="effect1_dropShadow_547_9069"/>
<feBlend mode="normal" in="SourceGraphic" in2="effect1_dropShadow_547_9069" result="shape"/>
</filter>
<clipPath id="clip0_547_9069">
<path d="M20 10C20 6.68629 22.6863 4 26 4H54C57.3137 4 60 6.68629 60 10V38C60 41.3137 57.3137 44 54 44H26C22.6863 44 20 41.3137 20 38V10Z" fill="white"/>
</clipPath>
<clipPath id="clip1_547_9069">
<rect x="20" y="4" width="40" height="40" rx="8" fill="white"/>
</clipPath>
</defs>
</svg>
